<mxfile host="app.diagrams.net" modified="2023-12-01T00:15:12.794Z" agent="Mozilla/5.0 (Windows NT 10.0; Win64; x64) AppleWebKit/537.36 (KHTML, like Gecko) Chrome/119.0.0.0 Safari/537.36 Edg/119.0.0.0" etag="FRS18cWr7nG4xGid7OCS" version="22.1.5" type="github">
  <diagram name="Page-1" id="1iX7W7CZyngNhClBLIJz">
    <mxGraphModel dx="786" dy="425" grid="1" gridSize="10" guides="1" tooltips="1" connect="1" arrows="1" fold="1" page="1" pageScale="1" pageWidth="827" pageHeight="1169" math="0" shadow="0">
      <root>
        <mxCell id="0" />
        <mxCell id="1" parent="0" />
        <mxCell id="JD0r5QBso3Y0Laxp2Myk-1" value="Usuário acessa aplicativo" style="rounded=1;whiteSpace=wrap;html=1;arcSize=40;fontColor=#000000;fillColor=#ffffc0;strokeColor=#ff0000;" vertex="1" parent="1">
          <mxGeometry x="310" y="120" width="120" height="40" as="geometry" />
        </mxCell>
        <mxCell id="JD0r5QBso3Y0Laxp2Myk-2" value="" style="edgeStyle=orthogonalEdgeStyle;html=1;verticalAlign=bottom;endArrow=open;endSize=8;strokeColor=#ff0000;rounded=0;entryX=0.5;entryY=0;entryDx=0;entryDy=0;" edge="1" parent="1" target="JD0r5QBso3Y0Laxp2Myk-5">
          <mxGeometry relative="1" as="geometry">
            <mxPoint x="80" y="180" as="targetPoint" />
            <mxPoint x="320" y="160" as="sourcePoint" />
            <Array as="points">
              <mxPoint x="80" y="160" />
            </Array>
          </mxGeometry>
        </mxCell>
        <mxCell id="JD0r5QBso3Y0Laxp2Myk-3" value="" style="ellipse;html=1;shape=startState;fillColor=#000000;strokeColor=#ff0000;" vertex="1" parent="1">
          <mxGeometry x="355" y="30" width="30" height="30" as="geometry" />
        </mxCell>
        <mxCell id="JD0r5QBso3Y0Laxp2Myk-4" value="" style="edgeStyle=orthogonalEdgeStyle;html=1;verticalAlign=bottom;endArrow=open;endSize=8;strokeColor=#ff0000;rounded=0;" edge="1" source="JD0r5QBso3Y0Laxp2Myk-3" parent="1">
          <mxGeometry relative="1" as="geometry">
            <mxPoint x="370" y="120" as="targetPoint" />
          </mxGeometry>
        </mxCell>
        <mxCell id="JD0r5QBso3Y0Laxp2Myk-5" value="adicionar tarefa" style="rounded=1;whiteSpace=wrap;html=1;arcSize=40;fontColor=#000000;fillColor=#ffffc0;strokeColor=#ff0000;" vertex="1" parent="1">
          <mxGeometry x="20" y="220" width="120" height="40" as="geometry" />
        </mxCell>
        <mxCell id="JD0r5QBso3Y0Laxp2Myk-6" value="" style="edgeStyle=orthogonalEdgeStyle;html=1;verticalAlign=bottom;endArrow=open;endSize=8;strokeColor=#ff0000;rounded=0;entryX=0;entryY=0.5;entryDx=0;entryDy=0;" edge="1" source="JD0r5QBso3Y0Laxp2Myk-5" parent="1" target="JD0r5QBso3Y0Laxp2Myk-23">
          <mxGeometry relative="1" as="geometry">
            <mxPoint x="80" y="280" as="targetPoint" />
          </mxGeometry>
        </mxCell>
        <mxCell id="JD0r5QBso3Y0Laxp2Myk-7" value="Editar Tarefa" style="rounded=1;whiteSpace=wrap;html=1;arcSize=40;fontColor=#000000;fillColor=#ffffc0;strokeColor=#ff0000;" vertex="1" parent="1">
          <mxGeometry x="310" y="240" width="120" height="40" as="geometry" />
        </mxCell>
        <mxCell id="JD0r5QBso3Y0Laxp2Myk-9" value="Buscar Tarefas" style="rounded=1;whiteSpace=wrap;html=1;arcSize=40;fontColor=#000000;fillColor=#ffffc0;strokeColor=#ff0000;" vertex="1" parent="1">
          <mxGeometry x="610" y="220" width="120" height="40" as="geometry" />
        </mxCell>
        <mxCell id="JD0r5QBso3Y0Laxp2Myk-14" value="" style="edgeStyle=orthogonalEdgeStyle;html=1;verticalAlign=bottom;endArrow=open;endSize=8;strokeColor=#ff0000;rounded=0;" edge="1" parent="1">
          <mxGeometry relative="1" as="geometry">
            <mxPoint x="510" y="360" as="targetPoint" />
            <mxPoint x="669.5" y="260" as="sourcePoint" />
            <Array as="points">
              <mxPoint x="670" y="320" />
            </Array>
          </mxGeometry>
        </mxCell>
        <mxCell id="JD0r5QBso3Y0Laxp2Myk-19" value="" style="edgeStyle=orthogonalEdgeStyle;html=1;verticalAlign=bottom;endArrow=open;endSize=8;strokeColor=#ff0000;rounded=0;entryX=0.5;entryY=0;entryDx=0;entryDy=0;" edge="1" parent="1" target="JD0r5QBso3Y0Laxp2Myk-7">
          <mxGeometry relative="1" as="geometry">
            <mxPoint x="370" y="220" as="targetPoint" />
            <mxPoint x="370" y="160" as="sourcePoint" />
            <Array as="points" />
          </mxGeometry>
        </mxCell>
        <mxCell id="JD0r5QBso3Y0Laxp2Myk-22" value="" style="edgeStyle=orthogonalEdgeStyle;html=1;verticalAlign=bottom;endArrow=open;endSize=8;strokeColor=#ff0000;rounded=0;entryX=0.5;entryY=0;entryDx=0;entryDy=0;exitX=0.906;exitY=1;exitDx=0;exitDy=0;exitPerimeter=0;" edge="1" parent="1" source="JD0r5QBso3Y0Laxp2Myk-1">
          <mxGeometry relative="1" as="geometry">
            <mxPoint x="670" y="220" as="targetPoint" />
            <mxPoint x="520" y="160" as="sourcePoint" />
            <Array as="points">
              <mxPoint x="670" y="160" />
            </Array>
          </mxGeometry>
        </mxCell>
        <mxCell id="JD0r5QBso3Y0Laxp2Myk-23" value="Priorizar Tarefas" style="rhombus;whiteSpace=wrap;html=1;fontColor=#000000;fillColor=#ffffc0;strokeColor=#ff0000;" vertex="1" parent="1">
          <mxGeometry x="290" y="310" width="160" height="100" as="geometry" />
        </mxCell>
        <mxCell id="JD0r5QBso3Y0Laxp2Myk-24" value="no" style="edgeStyle=orthogonalEdgeStyle;html=1;align=left;verticalAlign=bottom;endArrow=open;endSize=8;strokeColor=#ff0000;rounded=0;" edge="1" source="JD0r5QBso3Y0Laxp2Myk-23" parent="1" target="JD0r5QBso3Y0Laxp2Myk-39">
          <mxGeometry x="-0.777" y="-10" relative="1" as="geometry">
            <mxPoint x="720" y="650" as="targetPoint" />
            <Array as="points">
              <mxPoint x="720" y="360" />
              <mxPoint x="720" y="580" />
            </Array>
            <mxPoint x="10" y="-10" as="offset" />
          </mxGeometry>
        </mxCell>
        <mxCell id="JD0r5QBso3Y0Laxp2Myk-25" value="yes" style="edgeStyle=orthogonalEdgeStyle;html=1;align=left;verticalAlign=top;endArrow=open;endSize=8;strokeColor=#ff0000;rounded=0;entryX=0.417;entryY=0;entryDx=0;entryDy=0;entryPerimeter=0;exitX=0.096;exitY=0.599;exitDx=0;exitDy=0;exitPerimeter=0;" edge="1" source="JD0r5QBso3Y0Laxp2Myk-23" parent="1">
          <mxGeometry x="-1" y="20" relative="1" as="geometry">
            <mxPoint x="80.03999999999996" y="540" as="targetPoint" />
            <mxPoint x="300" y="370" as="sourcePoint" />
            <Array as="points">
              <mxPoint x="80" y="370" />
            </Array>
            <mxPoint x="4" as="offset" />
          </mxGeometry>
        </mxCell>
        <mxCell id="JD0r5QBso3Y0Laxp2Myk-31" value="" style="edgeStyle=orthogonalEdgeStyle;html=1;verticalAlign=bottom;endArrow=open;endSize=8;strokeColor=#ff0000;rounded=0;" edge="1" parent="1">
          <mxGeometry relative="1" as="geometry">
            <mxPoint x="369.5" y="310" as="targetPoint" />
            <mxPoint x="369.5" y="280" as="sourcePoint" />
            <Array as="points">
              <mxPoint x="369.5" y="280" />
            </Array>
          </mxGeometry>
        </mxCell>
        <mxCell id="JD0r5QBso3Y0Laxp2Myk-33" value="Categorizar Tarefa" style="rounded=1;whiteSpace=wrap;html=1;arcSize=40;fontColor=#000000;fillColor=#ffffc0;strokeColor=#ff0000;" vertex="1" parent="1">
          <mxGeometry x="20" y="540" width="120" height="40" as="geometry" />
        </mxCell>
        <mxCell id="JD0r5QBso3Y0Laxp2Myk-34" value="" style="edgeStyle=orthogonalEdgeStyle;html=1;verticalAlign=bottom;endArrow=open;endSize=8;strokeColor=#ff0000;rounded=0;entryX=0;entryY=0.5;entryDx=0;entryDy=0;" edge="1" parent="1">
          <mxGeometry relative="1" as="geometry">
            <mxPoint x="140" y="690" as="targetPoint" />
            <mxPoint x="80.5" y="580" as="sourcePoint" />
            <Array as="points">
              <mxPoint x="81" y="610" />
              <mxPoint x="81" y="610" />
              <mxPoint x="81" y="690" />
            </Array>
          </mxGeometry>
        </mxCell>
        <mxCell id="JD0r5QBso3Y0Laxp2Myk-35" value="Receber notificação&lt;br&gt;tarefa pendente" style="rounded=1;whiteSpace=wrap;html=1;arcSize=40;fontColor=#000000;fillColor=#ffffc0;strokeColor=#ff0000;" vertex="1" parent="1">
          <mxGeometry x="235" y="540" width="120" height="40" as="geometry" />
        </mxCell>
        <mxCell id="JD0r5QBso3Y0Laxp2Myk-36" value="" style="edgeStyle=orthogonalEdgeStyle;html=1;verticalAlign=bottom;endArrow=open;endSize=8;strokeColor=#ff0000;rounded=0;" edge="1" parent="1">
          <mxGeometry relative="1" as="geometry">
            <mxPoint x="220" y="690" as="targetPoint" />
            <mxPoint x="300" y="580" as="sourcePoint" />
            <Array as="points">
              <mxPoint x="300" y="610" />
              <mxPoint x="300" y="610" />
            </Array>
          </mxGeometry>
        </mxCell>
        <mxCell id="JD0r5QBso3Y0Laxp2Myk-38" value="" style="edgeStyle=orthogonalEdgeStyle;html=1;verticalAlign=bottom;endArrow=open;endSize=8;strokeColor=#ff0000;rounded=0;entryX=0;entryY=0.5;entryDx=0;entryDy=0;" edge="1" parent="1" source="JD0r5QBso3Y0Laxp2Myk-23">
          <mxGeometry relative="1" as="geometry">
            <mxPoint x="300" y="540" as="targetPoint" />
            <mxPoint x="150" y="420" as="sourcePoint" />
          </mxGeometry>
        </mxCell>
        <mxCell id="JD0r5QBso3Y0Laxp2Myk-39" value="Marcar tarefa&amp;nbsp;&lt;br&gt;como cocluída" style="rounded=1;whiteSpace=wrap;html=1;arcSize=40;fontColor=#000000;fillColor=#ffffc0;strokeColor=#ff0000;" vertex="1" parent="1">
          <mxGeometry x="660" y="750" width="120" height="40" as="geometry" />
        </mxCell>
        <mxCell id="JD0r5QBso3Y0Laxp2Myk-44" value="Filtrar&amp;nbsp;&lt;br&gt;tarefa" style="rhombus;whiteSpace=wrap;html=1;fontColor=#000000;fillColor=#ffffc0;strokeColor=#ff0000;" vertex="1" parent="1">
          <mxGeometry x="140" y="660" width="80" height="60" as="geometry" />
        </mxCell>
        <mxCell id="JD0r5QBso3Y0Laxp2Myk-45" value="no" style="edgeStyle=orthogonalEdgeStyle;html=1;align=left;verticalAlign=bottom;endArrow=open;endSize=8;strokeColor=#ff0000;rounded=0;entryX=0.072;entryY=-0.016;entryDx=0;entryDy=0;entryPerimeter=0;" edge="1" parent="1" target="JD0r5QBso3Y0Laxp2Myk-39">
          <mxGeometry x="-0.5801" y="-20" relative="1" as="geometry">
            <mxPoint x="300" y="810" as="targetPoint" />
            <mxPoint x="230" y="690" as="sourcePoint" />
            <mxPoint as="offset" />
          </mxGeometry>
        </mxCell>
        <mxCell id="JD0r5QBso3Y0Laxp2Myk-46" value="yes" style="edgeStyle=orthogonalEdgeStyle;html=1;align=left;verticalAlign=top;endArrow=open;endSize=8;strokeColor=#ff0000;rounded=0;" edge="1" parent="1">
          <mxGeometry x="-0.4377" y="-30" relative="1" as="geometry">
            <mxPoint x="139.5" y="790" as="targetPoint" />
            <mxPoint x="140" y="692" as="sourcePoint" />
            <mxPoint as="offset" />
          </mxGeometry>
        </mxCell>
        <mxCell id="JD0r5QBso3Y0Laxp2Myk-47" value="Compartilhar&lt;br&gt;tarefa" style="rounded=1;whiteSpace=wrap;html=1;arcSize=40;fontColor=#000000;fillColor=#ffffc0;strokeColor=#ff0000;" vertex="1" parent="1">
          <mxGeometry x="80" y="790" width="120" height="40" as="geometry" />
        </mxCell>
        <mxCell id="JD0r5QBso3Y0Laxp2Myk-48" value="" style="edgeStyle=orthogonalEdgeStyle;html=1;verticalAlign=bottom;endArrow=open;endSize=8;strokeColor=#ff0000;rounded=0;entryX=0.5;entryY=1;entryDx=0;entryDy=0;" edge="1" source="JD0r5QBso3Y0Laxp2Myk-47" parent="1" target="JD0r5QBso3Y0Laxp2Myk-39">
          <mxGeometry relative="1" as="geometry">
            <mxPoint x="140" y="940" as="targetPoint" />
          </mxGeometry>
        </mxCell>
        <mxCell id="JD0r5QBso3Y0Laxp2Myk-50" value="" style="edgeStyle=orthogonalEdgeStyle;html=1;verticalAlign=bottom;endArrow=open;endSize=8;strokeColor=#ff0000;rounded=0;" edge="1" parent="1">
          <mxGeometry relative="1" as="geometry">
            <mxPoint x="720" y="1020" as="targetPoint" />
            <mxPoint x="720" y="810" as="sourcePoint" />
            <Array as="points">
              <mxPoint x="720" y="980" />
            </Array>
          </mxGeometry>
        </mxCell>
        <mxCell id="JD0r5QBso3Y0Laxp2Myk-51" value="" style="ellipse;html=1;shape=endState;fillColor=#000000;strokeColor=#ff0000;" vertex="1" parent="1">
          <mxGeometry x="705" y="1030" width="30" height="30" as="geometry" />
        </mxCell>
      </root>
    </mxGraphModel>
  </diagram>
</mxfile>
